<svg version="1.1" viewBox="0.0 0.0 1200.0 630.0" fill="none" stroke="none" stroke-linecap="square" stroke-miterlimit="10" xmlns:xlink="http://www.w3.org/1999/xlink" xmlns="http://www.w3.org/2000/svg"><clipPath id="p.0"><path d="m0 0l1200.0 0l0 630.0l-1200.0 0l0 -630.0z" clip-rule="nonzero"/></clipPath><g clip-path="url(#p.0)"><path fill="#000000" fill-opacity="0.0" d="m0 0l1200.0 0l0 630.0l-1200.0 0z" fill-rule="evenodd"/><defs><linearGradient id="p.1" gradientUnits="userSpaceOnUse" gradientTransform="matrix(25.100200771492915 0.0 0.0 25.100200771492915 0.0 0.0)" spreadMethod="pad" x1="-2.0913490834380507E-4" y1="-1.692700656447453E-4" x2="-2.9999738658444553E-4" y2="25.100031501262812"><stop offset="0.0" stop-color="#6778eb"/><stop offset="1.0" stop-color="#26389c"/></linearGradient></defs><path fill="url(#p.1)" d="m-0.005249344 9.527559E-5l1200.0 0l0 630.01575l-1200.0 0z" fill-rule="evenodd"/><path fill="#000000" fill-opacity="0.0" d="m-0.005249344 144.46982l1200.0 0l0 261.7953l-1200.0 0z" fill-rule="evenodd"/><path fill="#ffffff" d="m287.64124 247.71982q0 1.5625 -1.078125 2.484375q-1.0625 0.921875 -2.625 0.921875l-49.515625 0l0 1.078125q0 5.953125 -0.890625 12.703125q-0.875 6.734375 -2.390625 13.421875q-1.5 6.6875 -3.40625 13.046875q-1.90625 6.34375 -3.90625 11.71875q-2.0 5.359375 -3.953125 9.3125q-1.953125 3.953125 -3.515625 5.90625q1.265625 4.5 3.015625 8.359375q1.765625 3.859375 3.953125 6.734375q2.203125 2.875 4.734375 4.546875q2.546875 1.65625 5.484375 1.65625q3.40625 0 6.78125 -2.875q3.375 -2.890625 6.25 -6.84375q2.875 -3.953125 5.078125 -8.0q2.203125 -4.0625 3.171875 -6.5q0.984375 -2.34375 3.421875 -2.34375q1.65625 0 2.671875 1.171875q1.03125 1.171875 1.03125 2.53125q0 0.6875 -0.28125 1.375q-0.296875 0.6875 -1.421875 3.125q-1.125 2.4375 -2.9375 5.671875q-1.796875 3.21875 -4.1875 6.78125q-2.390625 3.5625 -5.375 6.5q-2.984375 2.921875 -6.40625 4.875q-3.40625 1.953125 -7.21875 1.953125q-6.734375 0 -12.109375 -4.390625q-5.375 -4.40625 -9.140625 -12.3125q-3.75 -7.90625 -5.703125 -18.75q-1.953125 -10.84375 -1.953125 -23.734375q0 -3.21875 0.09375 -7.5625q0.109375 -4.34375 0.390625 -9.171875q0.296875 -4.84375 0.875 -9.96875q0.59375 -5.125 1.578125 -10.015625l-35.0625 0q-1.5625 0 -2.640625 -0.921875q-1.078125 -0.921875 -1.078125 -2.484375q0 -1.5625 1.078125 -2.484375q1.078125 -0.9375 2.640625 -0.9375l36.71875 0q0.96875 -3.515625 2.28125 -6.4375q1.328125 -2.9375 3.03125 -5.078125q1.71875 -2.15625 3.8125 -3.375q2.109375 -1.21875 4.640625 -1.21875q2.4375 0 4.25 1.21875q1.8125 1.21875 3.078125 3.375q1.265625 2.140625 2.0 5.078125q0.734375 2.921875 1.125 6.4375l49.90625 0q1.5625 0 2.625 0.9375q1.078125 0.921875 1.078125 2.484375zm-73.53125 60.828125q2.921875 -6.4375 5.3125 -13.90625q2.40625 -7.46875 4.109375 -15.078125q1.703125 -7.625 2.625 -14.953125q0.9375 -7.328125 0.9375 -13.484375l-11.515625 0q-1.375 6.0625 -2.203125 15.0q-0.828125 8.9375 -0.828125 21.71875q0 7.140625 0.390625 11.96875q0.390625 4.828125 1.171875 8.734375zm9.078125 -73.046875q-0.875 0 -2.546875 1.90625q-1.65625 1.90625 -3.3125 6.890625l9.375 0q-0.484375 -4.109375 -1.421875 -6.453125q-0.921875 -2.34375 -2.09375 -2.34375zm-7.515625 80.078125l0 0.109375l0 -0.109375zm47.257812 21.59375q1.5625 -3.328125 3.609375 -7.1875q2.0625 -3.859375 4.40625 -7.90625q2.34375 -4.046875 4.96875 -8.046875q2.640625 -4.015625 5.484375 -7.53125q2.828125 -3.421875 5.703125 -4.921875q2.890625 -1.515625 5.421875 -1.515625q2.546875 0 4.4375 1.03125q1.90625 1.015625 3.125 2.78125q1.234375 1.75 1.859375 4.09375q0.640625 2.34375 0.640625 5.078125q0 2.25 -0.4375 6.015625q-0.4375 3.75 -0.4375 7.84375q0 2.34375 0.234375 4.640625q0.25 2.296875 0.875 4.109375q0.640625 1.796875 1.90625 2.921875q1.28125 1.125 3.328125 1.125q2.34375 0 4.6875 -1.3125q2.34375 -1.328125 4.578125 -3.515625q2.25 -2.203125 4.296875 -4.890625q2.0625 -2.6875 3.71875 -5.359375q1.65625 -2.6875 2.921875 -5.171875q1.28125 -2.5 2.0625 -4.15625q0.96875 -2.25 3.421875 -2.25q1.65625 0 2.625 1.171875q0.984375 1.171875 0.984375 2.53125q0 0.78125 -0.296875 1.46875q-0.390625 0.78125 -1.515625 3.234375q-1.125 2.4375 -3.03125 5.65625q-1.890625 3.21875 -4.4375 6.734375q-2.53125 3.515625 -5.609375 6.5q-3.078125 2.96875 -6.640625 4.875q-3.5625 1.90625 -7.46875 1.90625q-4.5 0 -7.234375 -1.90625q-2.734375 -1.90625 -4.25 -4.828125q-1.515625 -2.9375 -2.046875 -6.546875q-0.53125 -3.609375 -0.53125 -7.03125q0 -1.75 0.140625 -3.75q0.140625 -2.015625 0.328125 -3.96875q0.203125 -1.953125 0.34375 -3.65625q0.15625 -1.703125 0.15625 -2.875q0 -3.03125 -0.828125 -4.109375q-0.828125 -1.078125 -1.90625 -1.078125q-1.5625 0 -3.5625 1.8125q-2.0 1.8125 -4.203125 4.75q-2.1875 2.921875 -4.390625 6.578125q-2.203125 3.65625 -4.25 7.28125q-2.046875 3.609375 -3.71875 6.890625q-1.65625 3.265625 -2.71875 5.40625q-2.0625 4.109375 -4.15625 5.515625q-2.09375 1.421875 -3.765625 1.421875q-3.015625 0 -4.640625 -2.390625q-1.609375 -2.390625 -1.609375 -5.8125l0 -6.15625q0 -18.453125 0.046875 -35.203125q0.0625 -16.75 0.5 -31.15625q0.4375 -14.40625 1.453125 -26.0625q1.03125 -11.671875 3.078125 -19.921875q2.0625 -8.265625 5.234375 -12.75q3.171875 -4.5 7.953125 -4.5q4.109375 0 6.9375 2.25q2.828125 2.25 4.578125 6.109375q1.765625 3.859375 2.546875 8.984375q0.78125 5.125 0.78125 10.78125q0 11.53125 -2.109375 22.625q-2.09375 11.078125 -5.609375 21.625q-3.515625 10.546875 -8.203125 20.5625q-4.6875 10.0 -9.859375 19.46875q0 1.765625 0 4.203125q0 2.4375 0 4.890625q0 2.4375 0 4.59375q0 2.140625 0 3.40625l0.09375 4.59375zm0 -36.046875q4.109375 -8.984375 7.46875 -17.515625q3.375 -8.546875 5.765625 -17.046875q2.390625 -8.5 3.75 -17.234375q1.375 -8.75 1.375 -18.21875q0 -1.5625 -0.140625 -4.96875q-0.140625 -3.421875 -0.875 -6.9375q-0.734375 -3.515625 -2.25 -6.15625q-1.515625 -2.640625 -4.25 -2.640625q-2.140625 0 -3.703125 2.890625q-1.5625 2.875 -2.734375 7.8125q-1.171875 4.921875 -1.953125 11.46875q-0.78125 6.546875 -1.28125 13.875q-0.484375 7.3125 -0.734375 15.03125q-0.234375 7.71875 -0.34375 15.0q-0.09375 7.265625 -0.09375 13.609375q0 6.34375 0 11.03125zm79.11328 33.59375q2.046875 2.84375 5.265625 4.546875q3.21875 1.703125 7.90625 1.703125q4.796875 0 8.703125 -2.28125q3.90625 -2.296875 7.125 -6.0q3.21875 -3.71875 5.75 -8.3125q2.546875 -4.59375 4.59375 -9.1875q0.5 -1.0625 1.375 -1.59375q0.875 -0.546875 1.953125 -0.546875q1.65625 0 2.671875 1.171875q1.03125 1.171875 1.03125 2.53125q0 0.5 -0.09375 0.84375q-0.09375 0.328125 -0.296875 0.71875q-6.734375 14.84375 -14.703125 22.375q-7.953125 7.515625 -18.0 7.71875q-6.453125 0 -11.140625 -2.5q-4.6875 -2.484375 -7.71875 -6.4375q-3.015625 -3.96875 -4.484375 -8.9375q-1.46875 -4.984375 -1.46875 -9.96875q0 -4.984375 1.21875 -9.171875q1.21875 -4.203125 3.515625 -7.328125q2.296875 -3.125 5.46875 -4.875q3.171875 -1.765625 6.984375 -1.765625q2.25 0 4.4375 0.9375q2.203125 0.921875 3.953125 2.625q1.765625 1.703125 2.84375 4.15625q1.078125 2.4375 1.078125 5.5625q0 4.0 -1.375 7.515625q-1.359375 3.515625 -3.765625 6.546875q-2.390625 3.03125 -5.71875 5.578125q-3.3125 2.53125 -7.109375 4.375zm-2.9375 -6.34375q3.03125 -1.265625 5.515625 -3.21875q2.5 -1.953125 4.25 -4.296875q1.765625 -2.34375 2.734375 -4.921875q0.984375 -2.59375 0.984375 -5.234375q0 -2.9375 -1.46875 -4.4375q-1.46875 -1.515625 -3.421875 -1.515625q-2.640625 0 -4.5 1.46875q-1.84375 1.453125 -3.015625 3.796875q-1.171875 2.34375 -1.71875 5.234375q-0.53125 2.875 -0.53125 5.703125q0 1.765625 0.34375 3.71875q0.34375 1.953125 0.828125 3.703125zm59.089844 -59.5625q0 3.703125 -2.59375 6.296875q-2.59375 2.578125 -6.296875 2.578125q-3.71875 0 -6.3125 -2.578125q-2.578125 -2.59375 -2.578125 -6.296875q0 -1.859375 0.6875 -3.46875q0.6875 -1.609375 1.90625 -2.828125q1.21875 -1.234375 2.828125 -1.90625q1.609375 -0.6875 3.46875 -0.6875q1.859375 0 3.46875 0.6875q1.609375 0.671875 2.828125 1.90625q1.21875 1.21875 1.90625 2.828125q0.6875 1.609375 0.6875 3.46875zm-9.375 80.078125q3.609375 -3.90625 7.40625 -8.25q3.8125 -4.359375 7.328125 -8.703125q3.515625 -4.34375 6.4375 -8.59375q2.9375 -4.25 4.609375 -8.046875q0.875 -2.15625 3.3125 -2.15625q1.65625 0 2.6875 1.125q1.03125 1.125 1.03125 2.484375q0 0.78125 -0.296875 1.46875q-2.25 5.078125 -6.15625 10.546875q-3.90625 5.46875 -8.453125 10.890625q-4.53125 5.421875 -9.265625 10.546875q-4.734375 5.125 -8.640625 9.53125q0.09375 7.8125 0.234375 15.328125q0.15625 7.515625 0.15625 14.25q0 26.859375 -5.28125 39.84375q-5.265625 13.0 -15.71875 13.0q-3.625 0 -6.640625 -1.5625q-3.03125 -1.5625 -5.171875 -4.5q-2.15625 -2.921875 -3.375 -7.21875q-1.21875 -4.296875 -1.21875 -9.765625q0 -6.0625 1.609375 -13.25q1.609375 -7.171875 5.171875 -15.1875q3.5625 -8.0 9.234375 -16.546875q5.65625 -8.53125 13.671875 -17.328125q0 -8.390625 0.09375 -16.734375q0.09375 -8.359375 0.34375 -16.03125q0.25 -7.671875 0.6875 -14.359375q0.4375 -6.6875 1.015625 -11.859375q0.203125 -1.46875 1.21875 -2.34375q1.03125 -0.875 2.5 -0.875q1.46875 0 2.53125 1.078125q1.078125 1.0625 1.078125 2.625q0 0.59375 -0.34375 3.8125q-0.34375 3.21875 -0.734375 9.46875q-0.390625 6.25 -0.734375 15.484375q-0.328125 9.21875 -0.328125 21.828125zm3.796875 -80.078125q0 -1.375 -0.984375 -2.390625q-0.96875 -1.03125 -2.328125 -1.03125q-1.375 0 -2.40625 1.03125q-1.015625 1.015625 -1.015625 2.390625q0 1.359375 1.015625 2.34375q1.03125 0.96875 2.40625 0.96875q1.359375 0 2.328125 -0.96875q0.984375 -0.984375 0.984375 -2.34375zm-10.734375 119.921875q0 -4.984375 -0.109375 -9.96875q-0.09375 -4.96875 -0.1875 -10.828125q-6.0625 7.3125 -10.296875 14.4375q-4.25 7.140625 -6.984375 13.671875q-2.734375 6.546875 -3.953125 12.40625q-1.234375 5.859375 -1.234375 10.65625q0 2.734375 0.390625 5.515625q0.390625 2.78125 1.421875 5.078125q1.03125 2.296875 2.796875 3.703125q1.75 1.421875 4.484375 1.421875q1.0625 0 2.53125 -0.5q1.46875 -0.484375 2.984375 -2.09375q1.515625 -1.609375 2.984375 -4.640625q1.453125 -3.015625 2.625 -8.15625q1.171875 -5.125 1.859375 -12.640625q0.6875 -7.515625 0.6875 -18.0625zm77.734375 -54.015625q-2.4375 0 -4.296875 -0.390625q-1.46875 2.9375 -3.515625 5.4375q-2.046875 2.484375 -4.734375 4.34375q-2.6875 1.84375 -6.015625 2.921875q-3.3125 1.078125 -7.21875 1.078125q-4.59375 0 -8.40625 -1.625q-3.796875 -1.609375 -6.640625 -4.484375q-2.828125 -2.875 -4.390625 -6.921875q-1.5625 -4.0625 -1.5625 -8.953125q0 -6.25 2.25 -10.875q2.25 -4.640625 5.171875 -7.71875q2.9375 -3.078125 5.859375 -4.59375q2.9375 -1.515625 4.390625 -1.515625q1.671875 0 2.5 0.890625q0.828125 0.875 0.828125 2.328125q0 1.671875 -1.03125 2.5q-1.015625 0.828125 -2.578125 1.609375q-1.5625 0.78125 -3.328125 2.203125q-1.75 1.40625 -3.265625 3.5625q-1.515625 2.140625 -2.5 5.078125q-0.96875 2.921875 -0.96875 6.53125q0 3.234375 0.96875 6.015625q0.984375 2.78125 2.828125 4.78125q1.859375 2.0 4.390625 3.125q2.546875 1.125 5.671875 1.125q5.578125 0 9.234375 -2.578125q3.65625 -2.59375 5.609375 -6.609375q-5.75 -3.015625 -9.46875 -8.578125q-3.703125 -5.578125 -3.703125 -12.515625q0 -5.5625 2.671875 -9.078125q2.6875 -3.515625 7.09375 -3.515625q2.625 0 4.96875 1.28125q2.34375 1.265625 4.15625 4.0q1.8125 2.734375 2.875 7.03125q1.078125 4.296875 1.078125 10.25q0 3.125 -0.78125 6.546875q0.59375 0.09375 1.171875 0.09375q0.59375 0 1.265625 0q3.328125 0 5.953125 -0.78125q2.640625 -0.78125 4.78125 -2.34375q2.15625 -1.5625 3.859375 -4.0q1.71875 -2.453125 3.28125 -5.671875q0.296875 -0.578125 1.265625 -1.109375q0.984375 -0.546875 1.953125 -0.546875q1.28125 0 2.390625 1.03125q1.125 1.015625 1.125 2.671875q0 0.78125 -0.390625 1.71875q-0.390625 0.921875 -0.78125 1.703125q-1.65625 2.9375 -3.859375 5.625q-2.1875 2.671875 -5.171875 4.6875q-2.96875 2.0 -6.6875 3.171875q-3.703125 1.171875 -8.296875 1.0625zm-16.703125 -24.609375q0 1.859375 0.484375 3.921875q0.5 2.046875 1.515625 4.046875q1.03125 2.0 2.546875 3.8125q1.515625 1.796875 3.5625 3.0625q0.296875 -2.046875 0.296875 -4.0q0 -2.640625 -0.390625 -5.375q-0.390625 -2.734375 -1.125 -5.015625q-0.734375 -2.296875 -1.8125 -3.71875q-1.078125 -1.421875 -2.53125 -1.421875q-0.59375 0 -1.578125 0.890625q-0.96875 0.875 -0.96875 3.796875zm71.19922 36.734375q3.40625 -3.421875 6.921875 -6.984375q3.515625 -3.578125 6.828125 -7.484375q3.328125 -3.90625 6.203125 -8.140625q2.890625 -4.25 5.140625 -9.046875q0.484375 -1.0625 1.359375 -1.59375q0.890625 -0.546875 1.953125 -0.546875q1.671875 0 2.6875 1.171875q1.03125 1.171875 1.03125 2.640625q0 0.78125 -0.296875 1.453125q-3.03125 6.359375 -6.9375 11.640625q-3.90625 5.265625 -8.203125 10.0q-4.296875 4.734375 -8.6875 9.171875q-4.390625 4.453125 -8.390625 8.9375q-0.390625 6.75 0 13.53125q0.390625 6.78125 0.390625 14.40625q0 6.25 -0.390625 12.5q-0.390625 6.25 -1.28125 11.953125q-0.875 5.71875 -2.390625 10.703125q-1.515625 4.984375 -3.859375 8.640625q-2.34375 3.65625 -5.46875 5.75q-3.125 2.109375 -7.3125 2.109375q-6.9375 0 -10.65625 -4.78125q-3.703125 -4.78125 -3.703125 -13.375q0 -4.6875 1.015625 -10.0625q1.03125 -5.375 2.890625 -11.09375q1.859375 -5.703125 4.4375 -11.5625q2.59375 -5.859375 5.609375 -11.4375q3.03125 -5.5625 6.453125 -10.59375q3.421875 -5.015625 6.9375 -9.125q0.1875 -4.6875 0.4375 -9.71875q0.25 -5.03125 0.53125 -9.328125q-2.53125 4.5 -6.296875 7.234375q-3.75 2.734375 -8.25 2.734375q-7.421875 0 -11.625 -4.984375q-4.1875 -4.984375 -4.1875 -13.671875q0 -6.34375 1.21875 -11.5625q1.21875 -5.234375 2.625 -8.984375q1.421875 -3.765625 2.59375 -5.765625q1.171875 -2.015625 1.171875 -1.90625q1.078125 -1.671875 3.03125 -1.671875q1.65625 0 2.671875 1.125q1.03125 1.125 1.03125 2.59375q0 1.078125 -0.578125 1.953125q0.09375 -0.09375 -0.9375 1.609375q-1.015625 1.703125 -2.234375 4.9375q-1.21875 3.21875 -2.25 7.71875q-1.03125 4.484375 -1.03125 9.859375q0 5.359375 1.953125 8.390625q1.953125 3.03125 6.359375 3.03125q5.5625 0 10.046875 -8.25q4.5 -8.25 7.625 -23.984375q0.1875 -1.265625 1.15625 -2.09375q0.984375 -0.828125 2.359375 -0.828125q1.5625 0 2.625 1.078125q1.078125 1.0625 1.078125 2.625q0 0.296875 -0.390625 3.46875q-0.390625 3.171875 -0.921875 8.453125q-0.53125 5.265625 -1.125 12.25q-0.578125 6.984375 -0.96875 14.90625zm-7.8125 20.703125q-4.40625 6.34375 -8.0625 13.375q-3.65625 7.03125 -6.296875 13.953125q-2.640625 6.9375 -4.109375 13.28125q-1.453125 6.359375 -1.453125 11.34375q0 5.078125 1.65625 7.953125q1.65625 2.875 5.265625 2.875q3.234375 0 5.71875 -3.171875q2.484375 -3.171875 4.1875 -9.03125q1.71875 -5.859375 2.59375 -14.21875q0.890625 -8.34375 0.890625 -18.6875q0 -4.203125 -0.15625 -8.5q-0.140625 -4.296875 -0.234375 -9.171875zm40.51953 -17.296875q7.234375 -3.21875 13.140625 -7.421875q5.90625 -4.203125 10.546875 -8.828125q4.640625 -4.640625 7.90625 -9.46875q3.265625 -4.84375 5.21875 -9.234375q0.890625 -2.15625 3.328125 -2.15625q1.65625 0 2.671875 1.125q1.03125 1.125 1.03125 2.484375q0 0.78125 -0.28125 1.46875q-2.15625 4.78125 -5.484375 9.921875q-3.3125 5.125 -8.046875 10.0625q-4.734375 4.921875 -11.09375 9.515625q-6.34375 4.59375 -14.546875 8.390625q5.28125 5.46875 9.1875 12.15625q3.90625 6.703125 6.484375 13.921875q2.59375 7.234375 3.90625 14.59375q1.328125 7.375 1.328125 14.125q0 6.140625 -1.125 11.5625q-1.125 5.421875 -3.328125 9.421875q-2.1875 4.015625 -5.3125 6.296875q-3.125 2.296875 -7.125 2.296875q-5.859375 0 -9.09375 -4.34375q-3.21875 -4.34375 -4.734375 -12.015625q-1.515625 -7.65625 -1.765625 -18.0625q-0.234375 -10.390625 -0.234375 -22.609375q0 -6.046875 0 -14.109375q0 -8.046875 0.046875 -17.28125q0.046875 -9.234375 0.09375 -19.34375q0.0625 -10.109375 0.15625 -20.265625q0.09375 -10.15625 0.1875 -19.96875q0.109375 -9.8125 0.296875 -18.59375q0.296875 -16.796875 1.171875 -29.984375q0.875 -13.1875 2.828125 -22.265625q1.953125 -9.078125 5.328125 -13.8125q3.375 -4.75 8.546875 -4.75q4.09375 0 6.921875 2.296875q2.84375 2.296875 4.59375 6.15625q1.765625 3.859375 2.546875 9.03125q0.78125 5.171875 0.78125 10.84375q0 11.90625 -2.0625 23.046875q-2.046875 11.125 -5.5625 21.578125q-3.515625 10.453125 -8.25 20.421875q-4.734375 9.953125 -10.109375 19.625q0 4.0 0 8.640625q0 4.640625 0 9.28125q0 4.625 -0.046875 8.875q-0.046875 4.25 -0.046875 7.375zm0.296875 -49.21875q4.0 -7.515625 7.359375 -15.859375q3.375 -8.359375 5.8125 -17.234375q2.453125 -8.890625 3.8125 -18.171875q1.375 -9.28125 1.375 -18.65625q0 -4.6875 -0.4375 -8.484375q-0.4375 -3.8125 -1.375 -6.5q-0.921875 -2.6875 -2.34375 -4.203125q-1.40625 -1.515625 -3.265625 -1.515625q-1.953125 0 -3.421875 2.34375q-1.46875 2.34375 -2.546875 6.25q-1.0625 3.90625 -1.796875 8.984375q-0.734375 5.078125 -1.21875 10.59375q-0.484375 5.515625 -0.78125 11.046875q-0.296875 5.515625 -0.453125 10.34375q-0.140625 4.828125 -0.1875 8.546875q-0.046875 3.703125 -0.046875 5.5625q-0.09375 3.90625 -0.140625 6.9375q-0.046875 3.03125 -0.15625 5.96875q-0.09375 2.921875 -0.140625 6.25q-0.046875 3.3125 -0.046875 7.796875zm-0.296875 61.234375q0 6.15625 -0.046875 11.46875q-0.046875 5.328125 -0.046875 9.71875q0 9.09375 0.09375 17.96875q0.09375 8.890625 0.921875 15.96875q0.84375 7.078125 2.546875 11.421875q1.703125 4.359375 4.9375 4.359375q2.921875 0 4.78125 -2.640625q1.859375 -2.640625 2.875 -6.25q1.03125 -3.609375 1.421875 -7.375q0.390625 -3.765625 0.390625 -6.109375q0 -5.953125 -1.125 -12.5q-1.125 -6.53125 -3.421875 -12.9375q-2.296875 -6.390625 -5.625 -12.359375q-3.3125 -5.953125 -7.703125 -10.734375zm69.24609 -27.734375q-3.421875 5.5625 -7.96875 8.796875q-4.53125 3.21875 -9.125 3.21875q-3.71875 0 -6.65625 -1.359375q-2.921875 -1.375 -5.078125 -3.859375q-2.140625 -2.5 -3.265625 -6.015625q-1.109375 -3.515625 -1.109375 -7.90625q0 -6.84375 1.3125 -12.109375q1.3125 -5.28125 2.875 -8.84375q1.5625 -3.5625 2.921875 -5.421875q1.375 -1.859375 1.375 -1.859375q0.5 -0.578125 1.21875 -0.875q0.734375 -0.296875 1.515625 -0.296875q1.5625 0 2.59375 1.125q1.03125 1.125 1.03125 2.59375q0 0.578125 -0.25 1.171875q-0.25 0.578125 -0.53125 1.171875q-0.5 0.875 -1.578125 2.6875q-1.0625 1.796875 -2.234375 4.734375q-1.171875 2.921875 -2.0625 6.890625q-0.875 3.953125 -0.875 9.03125q0 5.75 2.296875 8.734375q2.296875 2.984375 6.5 2.984375q1.75 0 4.046875 -1.125q2.296875 -1.125 4.484375 -3.46875q2.203125 -2.34375 3.859375 -5.953125q1.671875 -3.625 2.15625 -8.5l1.46875 -16.796875q0.1875 -1.46875 1.265625 -2.4375q1.078125 -0.984375 2.546875 -0.984375q1.65625 0 2.625 1.21875q0.984375 1.21875 0.984375 2.78125l-1.265625 16.21875q-0.203125 2.046875 0.140625 5.375q0.34375 3.3125 1.40625 6.546875q1.078125 3.21875 3.21875 5.515625q2.15625 2.28125 5.671875 2.28125q2.546875 0 4.984375 -1.3125q2.4375 -1.3125 4.6875 -3.453125q2.25 -2.15625 4.15625 -4.84375q1.90625 -2.6875 3.515625 -5.421875q1.609375 -2.734375 2.78125 -5.21875q1.171875 -2.5 1.953125 -4.25q0.484375 -1.078125 1.359375 -1.65625q0.890625 -0.59375 1.953125 -0.59375q1.765625 0 2.734375 1.171875q0.984375 1.171875 0.984375 2.53125q0 0.78125 -0.296875 1.46875q-0.390625 0.78125 -1.515625 3.28125q-1.125 2.484375 -2.9375 5.65625q-1.796875 3.171875 -4.34375 6.6875q-2.53125 3.515625 -5.65625 6.5q-3.125 2.96875 -6.796875 4.875q-3.65625 1.90625 -7.84375 1.90625q-5.765625 0 -9.578125 -3.265625q-3.8125 -3.28125 -5.65625 -9.328125zm93.16016 -16.109375q-1.078125 2.234375 -2.6875 5.3125q-1.609375 3.078125 -3.671875 6.40625q-2.046875 3.3125 -4.59375 6.59375q-2.53125 3.265625 -5.515625 5.859375q-2.96875 2.578125 -6.34375 4.1875q-3.359375 1.625 -7.171875 1.625q-5.859375 0 -10.0625 -3.609375q-4.1875 -3.625 -7.125 -9.484375q-2.921875 -5.859375 -4.734375 -13.328125q-1.8125 -7.46875 -2.796875 -15.234375q-0.96875 -7.765625 -1.3125 -15.09375q-0.328125 -7.328125 -0.328125 -12.984375q0 -8.203125 0.53125 -16.984375q0.53125 -8.796875 1.703125 -17.1875q1.171875 -8.40625 2.984375 -15.921875q1.8125 -7.53125 4.296875 -13.1875q2.484375 -5.671875 5.703125 -8.984375q3.234375 -3.328125 7.328125 -3.328125q3.234375 0 5.8125 1.515625q2.59375 1.515625 4.34375 4.9375q1.765625 3.421875 2.734375 8.890625q0.984375 5.46875 0.984375 13.375q0 9.765625 -2.0625 20.171875q-2.046875 10.390625 -5.5625 20.9375q-3.515625 10.546875 -8.296875 21.046875q-4.78125 10.5 -10.25 20.453125q2.4375 12.40625 6.53125 19.484375q4.109375 7.078125 9.875 7.078125q3.90625 0 7.515625 -3.0625q3.609375 -3.078125 6.640625 -7.28125q3.03125 -4.203125 5.328125 -8.546875q2.296875 -4.34375 3.5625 -6.984375q0.484375 -0.96875 1.359375 -1.5q0.890625 -0.546875 1.953125 -0.546875q1.671875 0 2.6875 1.171875q1.03125 1.171875 1.03125 2.640625q0 0.578125 -0.390625 1.5625zm-48.921875 -39.265625q0 6.25 0.28125 12.015625q0.296875 5.765625 0.78125 11.03125q4.109375 -7.90625 7.8125 -16.84375q3.71875 -8.9375 6.546875 -18.0625q2.828125 -9.140625 4.53125 -18.171875q1.71875 -9.03125 1.71875 -17.234375q0 -11.515625 -1.859375 -16.5q-1.84375 -4.984375 -4.96875 -4.984375q-2.0625 0 -3.96875 2.84375q-1.890625 2.828125 -3.5625 7.71875q-1.65625 4.875 -3.03125 11.515625q-1.359375 6.640625 -2.296875 14.265625q-0.921875 7.609375 -1.453125 15.90625q-0.53125 8.296875 -0.53125 16.5zm106.14453 39.265625q-0.578125 1.0625 -2.0 3.90625q-1.421875 2.828125 -3.8125 6.390625q-2.390625 3.5625 -5.71875 7.375q-3.3125 3.8125 -7.609375 6.984375q-4.296875 3.171875 -9.625 5.21875q-5.3125 2.0625 -11.5625 2.0625q-5.5625 0 -9.859375 -2.015625q-4.296875 -2.0 -7.328125 -5.65625q-3.03125 -3.671875 -4.59375 -8.640625q-1.5625 -4.984375 -1.5625 -11.046875q0 -5.859375 1.65625 -10.984375q1.671875 -5.125 4.546875 -8.921875q2.875 -3.8125 6.6875 -6.015625q3.8125 -2.203125 8.109375 -2.203125q3.21875 0 5.859375 1.125q2.640625 1.125 4.4375 2.984375q1.8125 1.859375 2.828125 4.109375q1.03125 2.234375 1.03125 4.484375q0 2.140625 -0.546875 4.0q-0.53125 1.859375 -1.359375 3.28125q-0.828125 1.40625 -1.90625 2.234375q-1.0625 0.828125 -2.140625 0.828125q-1.65625 0 -2.6875 -1.0625q-1.03125 -1.078125 -1.03125 -2.640625q0 -0.78125 0.34375 -1.359375q0.34375 -0.59375 0.78125 -1.21875q0.4375 -0.640625 0.78125 -1.5625q0.34375 -0.9375 0.34375 -2.40625q0 -2.046875 -1.90625 -3.703125q-1.90625 -1.671875 -4.828125 -1.671875q-2.734375 0 -5.234375 1.671875q-2.484375 1.65625 -4.34375 4.4375q-1.84375 2.78125 -2.96875 6.546875q-1.125 3.75 -1.125 7.953125q0 4.0 0.96875 7.625q0.984375 3.609375 2.9375 6.390625q1.953125 2.78125 4.921875 4.453125q2.984375 1.65625 7.09375 1.65625q5.265625 0 9.75 -1.90625q4.5 -1.90625 8.203125 -4.828125q3.71875 -2.9375 6.546875 -6.40625q2.84375 -3.46875 4.84375 -6.546875q2.0 -3.078125 3.125 -5.359375q1.125 -2.296875 1.3125 -2.890625q0.390625 -0.96875 1.3125 -1.5q0.9375 -0.546875 2.015625 -0.546875q1.65625 0 2.671875 1.171875q1.03125 1.171875 1.03125 2.640625q0 0.578125 -0.390625 1.5625zm1.0703125 18.75q1.5625 -3.328125 3.609375 -7.1875q2.0625 -3.859375 4.40625 -7.90625q2.34375 -4.046875 4.96875 -8.046875q2.640625 -4.015625 5.484375 -7.53125q2.828125 -3.421875 5.703125 -4.921875q2.890625 -1.515625 5.421875 -1.515625q2.546875 0 4.4375 1.03125q1.90625 1.015625 3.125 2.78125q1.234375 1.75 1.859375 4.09375q0.640625 2.34375 0.640625 5.078125q0 2.25 -0.4375 6.015625q-0.4375 3.75 -0.4375 7.84375q0 2.34375 0.234375 4.640625q0.25 2.296875 0.875 4.109375q0.640625 1.796875 1.90625 2.921875q1.28125 1.125 3.328125 1.125q2.34375 0 4.6875 -1.3125q2.34375 -1.328125 4.578125 -3.515625q2.25 -2.203125 4.296875 -4.890625q2.0625 -2.6875 3.71875 -5.359375q1.65625 -2.6875 2.921875 -5.171875q1.28125 -2.5 2.0625 -4.15625q0.96875 -2.25 3.421875 -2.25q1.65625 0 2.625 1.171875q0.984375 1.171875 0.984375 2.53125q0 0.78125 -0.296875 1.46875q-0.390625 0.78125 -1.515625 3.234375q-1.125 2.4375 -3.03125 5.65625q-1.890625 3.21875 -4.4375 6.734375q-2.53125 3.515625 -5.609375 6.5q-3.078125 2.96875 -6.640625 4.875q-3.5625 1.90625 -7.46875 1.90625q-4.5 0 -7.234375 -1.90625q-2.734375 -1.90625 -4.25 -4.828125q-1.515625 -2.9375 -2.046875 -6.546875q-0.53125 -3.609375 -0.53125 -7.03125q0 -1.75 0.140625 -3.75q0.140625 -2.015625 0.328125 -3.96875q0.203125 -1.953125 0.34375 -3.65625q0.15625 -1.703125 0.15625 -2.875q0 -3.03125 -0.828125 -4.109375q-0.828125 -1.078125 -1.90625 -1.078125q-1.5625 0 -3.5625 1.8125q-2.0 1.8125 -4.203125 4.75q-2.1875 2.921875 -4.390625 6.578125q-2.203125 3.65625 -4.25 7.28125q-2.046875 3.609375 -3.71875 6.890625q-1.65625 3.265625 -2.71875 5.40625q-2.0625 4.109375 -4.15625 5.515625q-2.09375 1.421875 -3.765625 1.421875q-3.015625 0 -4.640625 -2.390625q-1.609375 -2.390625 -1.609375 -5.8125l0 -6.15625q0 -18.453125 0.046875 -35.203125q0.0625 -16.75 0.5 -31.15625q0.4375 -14.40625 1.453125 -26.0625q1.03125 -11.671875 3.078125 -19.921875q2.0625 -8.265625 5.234375 -12.75q3.171875 -4.5 7.953125 -4.5q4.109375 0 6.9375 2.25q2.828125 2.25 4.578125 6.109375q1.765625 3.859375 2.546875 8.984375q0.78125 5.125 0.78125 10.78125q0 11.53125 -2.109375 22.625q-2.09375 11.078125 -5.609375 21.625q-3.515625 10.546875 -8.203125 20.5625q-4.6875 10.0 -9.859375 19.46875q0 1.765625 0 4.203125q0 2.4375 0 4.890625q0 2.4375 0 4.59375q0 2.140625 0 3.40625l0.09375 4.59375zm0 -36.046875q4.109375 -8.984375 7.46875 -17.515625q3.375 -8.546875 5.765625 -17.046875q2.390625 -8.5 3.75 -17.234375q1.375 -8.75 1.375 -18.21875q0 -1.5625 -0.140625 -4.96875q-0.140625 -3.421875 -0.875 -6.9375q-0.734375 -3.515625 -2.25 -6.15625q-1.515625 -2.640625 -4.25 -2.640625q-2.140625 0 -3.703125 2.890625q-1.5625 2.875 -2.734375 7.8125q-1.171875 4.921875 -1.953125 11.46875q-0.78125 6.546875 -1.28125 13.875q-0.484375 7.3125 -0.734375 15.03125q-0.234375 7.71875 -0.34375 15.0q-0.09375 7.265625 -0.09375 13.609375q0 6.34375 0 11.03125zm83.30078 -32.3125q0 3.703125 -2.59375 6.296875q-2.578125 2.578125 -6.28125 2.578125q-3.71875 0 -6.3125 -2.578125q-2.578125 -2.59375 -2.578125 -6.296875q0 -1.859375 0.671875 -3.46875q0.6875 -1.609375 1.90625 -2.828125q1.234375 -1.234375 2.84375 -1.90625q1.609375 -0.6875 3.46875 -0.6875q1.84375 0 3.453125 0.6875q1.625 0.671875 2.84375 1.90625q1.21875 1.21875 1.890625 2.828125q0.6875 1.609375 0.6875 3.46875zm-15.8125 57.21875q0 -14.0625 1.75 -28.03125q0.203125 -1.359375 1.21875 -2.375q1.03125 -1.03125 2.6875 -1.03125q1.46875 0 2.4375 1.125q0.984375 1.109375 0.984375 2.578125q0 0.59375 -0.25 3.53125q-0.234375 2.921875 -0.578125 6.96875q-0.34375 4.046875 -0.59375 8.59375q-0.234375 4.546875 -0.234375 8.34375q0 5.1875 1.015625 8.359375q1.03125 3.171875 2.640625 4.9375q1.609375 1.75 3.421875 2.34375q1.8125 0.578125 3.46875 0.578125q2.734375 0 5.65625 -1.953125q2.9375 -1.953125 6.015625 -5.46875q3.078125 -3.515625 6.203125 -8.4375q3.125 -4.9375 6.140625 -11.0q0.5 -0.96875 1.375 -1.5q0.875 -0.546875 1.953125 -0.546875q1.5625 0 2.578125 1.171875q1.03125 1.171875 1.03125 2.53125q0 0.984375 -0.390625 1.671875q-1.171875 2.234375 -2.9375 5.46875q-1.75 3.21875 -4.0 6.640625q-2.234375 3.40625 -4.921875 6.78125q-2.6875 3.375 -5.71875 6.0625q-3.03125 2.6875 -6.359375 4.34375q-3.3125 1.65625 -6.71875 1.65625q-4.40625 0 -7.734375 -1.859375q-3.3125 -1.84375 -5.609375 -4.96875q-2.28125 -3.140625 -3.40625 -7.375q-1.125 -4.25 -1.125 -9.140625zm10.34375 -57.21875q0 -1.375 -1.03125 -2.390625q-1.015625 -1.03125 -2.375 -1.03125q-1.375 0 -2.359375 1.03125q-0.96875 1.015625 -0.96875 2.390625q0 1.359375 0.96875 2.34375q0.984375 0.96875 2.359375 0.96875q1.359375 0 2.375 -0.96875q1.03125 -0.984375 1.03125 -2.34375zm87.11719 49.609375q-1.078125 2.234375 -2.6875 5.3125q-1.609375 3.078125 -3.671875 6.40625q-2.046875 3.3125 -4.59375 6.59375q-2.53125 3.265625 -5.515625 5.859375q-2.96875 2.578125 -6.34375 4.1875q-3.359375 1.625 -7.171875 1.625q-5.859375 0 -10.0625 -3.609375q-4.1875 -3.625 -7.125 -9.484375q-2.921875 -5.859375 -4.734375 -13.328125q-1.8125 -7.46875 -2.796875 -15.234375q-0.96875 -7.765625 -1.3125 -15.09375q-0.328125 -7.328125 -0.328125 -12.984375q0 -8.203125 0.53125 -16.984375q0.53125 -8.796875 1.703125 -17.1875q1.171875 -8.40625 2.984375 -15.921875q1.8125 -7.53125 4.296875 -13.1875q2.484375 -5.671875 5.703125 -8.984375q3.234375 -3.328125 7.328125 -3.328125q3.234375 0 5.8125 1.515625q2.59375 1.515625 4.34375 4.9375q1.765625 3.421875 2.734375 8.890625q0.984375 5.46875 0.984375 13.375q0 9.765625 -2.0625 20.171875q-2.046875 10.390625 -5.5625 20.9375q-3.515625 10.546875 -8.296875 21.046875q-4.78125 10.5 -10.25 20.453125q2.4375 12.40625 6.53125 19.484375q4.109375 7.078125 9.875 7.078125q3.90625 0 7.515625 -3.0625q3.609375 -3.078125 6.640625 -7.28125q3.03125 -4.203125 5.328125 -8.546875q2.296875 -4.34375 3.5625 -6.984375q0.484375 -0.96875 1.359375 -1.5q0.890625 -0.546875 1.953125 -0.546875q1.671875 0 2.6875 1.171875q1.03125 1.171875 1.03125 2.640625q0 0.578125 -0.390625 1.5625zm-48.921875 -39.265625q0 6.25 0.28125 12.015625q0.296875 5.765625 0.78125 11.03125q4.109375 -7.90625 7.8125 -16.84375q3.71875 -8.9375 6.546875 -18.0625q2.828125 -9.140625 4.53125 -18.171875q1.71875 -9.03125 1.71875 -17.234375q0 -11.515625 -1.859375 -16.5q-1.84375 -4.984375 -4.96875 -4.984375q-2.0625 0 -3.96875 2.84375q-1.890625 2.828125 -3.5625 7.71875q-1.65625 4.875 -3.03125 11.515625q-1.359375 6.640625 -2.296875 14.265625q-0.921875 7.609375 -1.453125 15.90625q-0.53125 8.296875 -0.53125 16.5zm80.17578 37.890625q4.78125 22.5625 13.859375 22.5625q3.515625 0 6.734375 -2.578125q3.234375 -2.59375 6.015625 -6.359375q2.78125 -3.765625 4.921875 -7.953125q2.15625 -4.203125 3.515625 -7.328125q0.984375 -2.34375 3.421875 -2.34375q1.5625 0 2.640625 1.171875q1.078125 1.171875 1.078125 2.53125q0 0.78125 -0.296875 1.375q-0.6875 1.65625 -2.015625 4.4375q-1.3125 2.78125 -3.21875 5.96875q-1.890625 3.171875 -4.234375 6.5q-2.34375 3.3125 -5.1875 5.953125q-2.828125 2.625 -6.0 4.34375q-3.171875 1.703125 -6.6875 1.703125q-6.546875 0 -11.234375 -4.53125q-4.6875 -4.546875 -8.109375 -15.0q-4.6875 9.953125 -9.46875 14.453125q-4.78125 4.5 -10.34375 4.5q-2.9375 0 -5.671875 -0.9375q-2.734375 -0.921875 -4.78125 -3.0625q-2.046875 -2.15625 -3.328125 -5.53125q-1.265625 -3.375 -1.265625 -8.25q0 -6.734375 2.34375 -12.390625q2.34375 -5.671875 6.046875 -9.71875q3.71875 -4.0625 8.25 -6.3125q4.546875 -2.25 9.046875 -2.25q1.46875 0 2.53125 1.03125q1.078125 1.03125 1.078125 2.59375q0 1.359375 -0.875 2.4375q-0.875 1.078125 -2.34375 1.265625q-2.9375 0.390625 -6.265625 1.859375q-3.3125 1.46875 -6.09375 4.25q-2.78125 2.78125 -4.59375 7.078125q-1.796875 4.296875 -1.796875 10.25q0 4.890625 2.0 7.625q2.0 2.734375 5.8125 2.734375q1.5625 0 3.3125 -0.828125q1.765625 -0.84375 3.765625 -3.28125q2.0 -2.4375 4.390625 -6.921875q2.390625 -4.5 5.328125 -11.828125q-1.65625 -8.59375 -3.03125 -19.8125q-1.359375 -11.234375 -1.359375 -25.109375q0 -6.046875 0.390625 -12.640625q0.390625 -6.59375 1.265625 -12.890625q0.875 -6.296875 2.34375 -11.953125q1.46875 -5.671875 3.5625 -9.96875q2.09375 -4.296875 4.921875 -6.78125q2.84375 -2.5 6.453125 -2.5q3.21875 0 5.46875 1.765625q2.25 1.75 3.65625 4.875q1.421875 3.125 2.109375 7.515625q0.6875 4.390625 0.6875 9.671875q0 11.328125 -1.953125 22.65625q-1.953125 11.328125 -4.84375 21.6875q-2.875 10.34375 -6.109375 19.140625q-3.21875 8.78125 -5.84375 15.125zm11.421875 -78.703125q0 -2.453125 -0.15625 -5.28125q-0.140625 -2.828125 -0.6875 -5.3125q-0.53125 -2.5 -1.40625 -4.15625q-0.875 -1.65625 -2.34375 -1.65625q-2.4375 0 -4.546875 4.296875q-2.09375 4.296875 -3.65625 11.28125q-1.5625 6.96875 -2.5 15.8125q-0.921875 8.84375 -0.921875 17.828125q0 8.59375 0.6875 17.1875q0.6875 8.59375 1.5625 15.328125q2.828125 -7.515625 5.359375 -15.46875q2.546875 -7.96875 4.453125 -16.265625q1.90625 -8.3125 3.03125 -16.75q1.125 -8.453125 1.125 -16.84375z" fill-rule="nonzero"/><path fill="#000000" fill-opacity="0.0" d="m599.9993 366.26556l542.5512 0l0 67.87402l-542.5512 0z" fill-rule="evenodd"/><path fill="#ffffff" d="m633.2181 404.6343q-0.53125 4.515625 -3.328125 6.96875q-2.796875 2.453125 -7.453125 2.453125q-5.03125 0 -8.078125 -3.609375q-3.03125 -3.625 -3.03125 -9.671875l0 -2.734375q0 -3.96875 1.40625 -6.96875q1.421875 -3.015625 4.015625 -4.625q2.609375 -1.609375 6.015625 -1.609375q4.53125 0 7.265625 2.53125q2.734375 2.53125 3.1875 7.0l-3.765625 0q-0.484375 -3.40625 -2.125 -4.921875q-1.625 -1.53125 -4.5625 -1.53125q-3.59375 0 -5.640625 2.65625q-2.03125 2.65625 -2.03125 7.5625l0 2.75q0 4.640625 1.9375 7.375q1.9375 2.734375 5.40625 2.734375q3.125 0 4.796875 -1.421875q1.671875 -1.421875 2.21875 -4.9375l3.765625 0zm8.160156 -9.546875q2.40625 -2.953125 6.25 -2.953125q6.703125 0 6.765625 7.5625l0 13.96875l-3.609375 0l0 -13.984375q-0.03125 -2.28125 -1.0625 -3.375q-1.015625 -1.09375 -3.1875 -1.09375q-1.75 0 -3.078125 0.9375q-1.328125 0.9375 -2.078125 2.453125l0 15.0625l-3.609375 0l0 -30.0l3.609375 0l0 11.421875zm22.34375 18.578125l-3.609375 0l0 -21.140625l3.609375 0l0 21.140625zm-3.90625 -26.734375q0 -0.890625 0.53125 -1.484375q0.546875 -0.609375 1.59375 -0.609375q1.0625 0 1.609375 0.609375q0.546875 0.59375 0.546875 1.484375q0 0.875 -0.546875 1.46875q-0.546875 0.578125 -1.609375 0.578125q-1.046875 0 -1.59375 -0.578125q-0.53125 -0.59375 -0.53125 -1.46875zm13.613281 26.734375l-3.609375 0l0 -30.0l3.609375 0l0 30.0zm4.9101562 -10.75q0 -4.859375 2.296875 -7.8125q2.3125 -2.96875 6.046875 -2.96875q3.703125 0 5.875 2.546875l0 -11.015625l3.609375 0l0 30.0l-3.3125 0l-0.1875 -2.265625q-2.15625 2.65625 -6.03125 2.65625q-3.671875 0 -5.984375 -3.0q-2.3125 -3.015625 -2.3125 -7.859375l0 -0.28125zm3.609375 0.421875q0 3.59375 1.484375 5.625q1.484375 2.03125 4.109375 2.03125q3.4375 0 5.015625 -3.09375l0 -9.703125q-1.625 -2.984375 -4.984375 -2.984375q-2.65625 0 -4.140625 2.046875q-1.484375 2.046875 -1.484375 6.078125zm28.308594 7.765625q1.921875 0 3.359375 -1.171875q1.453125 -1.171875 1.609375 -2.921875l3.421875 0q-0.09375 1.8125 -1.25 3.453125q-1.15625 1.640625 -3.078125 2.625q-1.921875 0.96875 -4.0625 0.96875q-4.328125 0 -6.875 -2.875q-2.546875 -2.890625 -2.546875 -7.890625l0 -0.609375q0 -3.078125 1.125 -5.484375q1.140625 -2.40625 3.25 -3.734375q2.125 -1.328125 5.015625 -1.328125q3.5625 0 5.90625 2.140625q2.359375 2.125 2.515625 5.515625l-3.421875 0q-0.15625 -2.046875 -1.546875 -3.359375q-1.390625 -1.328125 -3.453125 -1.328125q-2.75 0 -4.265625 1.984375q-1.515625 1.984375 -1.515625 5.734375l0 0.6875q0 3.65625 1.5 5.625q1.515625 1.96875 4.3125 1.96875zm25.5 2.5625q-0.3125 -0.625 -0.5 -2.234375q-2.53125 2.625 -6.015625 2.625q-3.125 0 -5.140625 -1.765625q-2.0 -1.765625 -2.0 -4.484375q0 -3.296875 2.515625 -5.125q2.515625 -1.828125 7.0625 -1.828125l3.515625 0l0 -1.65625q0 -1.90625 -1.140625 -3.015625q-1.125 -1.125 -3.328125 -1.125q-1.9375 0 -3.25 0.984375q-1.3125 0.96875 -1.3125 2.34375l-3.625 0q0 -1.578125 1.125 -3.046875q1.125 -1.484375 3.046875 -2.34375q1.921875 -0.859375 4.21875 -0.859375q3.65625 0 5.71875 1.828125q2.078125 1.828125 2.15625 5.03125l0 9.734375q0 2.90625 0.75 4.625l0 0.3125l-3.796875 0zm-6.0 -2.75q1.703125 0 3.21875 -0.875q1.53125 -0.890625 2.21875 -2.296875l0 -4.328125l-2.828125 0q-6.640625 0 -6.640625 3.875q0 1.703125 1.125 2.671875q1.140625 0.953125 2.90625 0.953125zm24.929688 -15.140625q-0.828125 -0.140625 -1.78125 -0.140625q-3.546875 0 -4.828125 3.03125l0 15.0l-3.609375 0l0 -21.140625l3.515625 0l0.0625 2.453125q1.78125 -2.84375 5.03125 -2.84375q1.0625 0 1.609375 0.28125l0 3.359375zm11.7109375 18.28125q-4.296875 0 -7.0 -2.8125q-2.6875 -2.828125 -2.6875 -7.5625l0 -0.65625q0 -3.15625 1.203125 -5.625q1.203125 -2.46875 3.359375 -3.859375q2.15625 -1.40625 4.6875 -1.40625q4.109375 0 6.390625 2.71875q2.296875 2.71875 2.296875 7.78125l0 1.5l-14.3125 0q0.078125 3.125 1.8125 5.046875q1.75 1.921875 4.453125 1.921875q1.90625 0 3.234375 -0.78125q1.328125 -0.78125 2.328125 -2.0625l2.203125 1.71875q-2.65625 4.078125 -7.96875 4.078125zm-0.4375 -18.953125q-2.1875 0 -3.671875 1.59375q-1.484375 1.59375 -1.84375 4.46875l10.59375 0l0 -0.28125q-0.15625 -2.75 -1.484375 -4.265625q-1.328125 -1.515625 -3.59375 -1.515625zm24.546875 18.5625l0 -18.34375l-3.34375 0l0 -2.796875l3.34375 0l0 -2.15625q0 -3.40625 1.8125 -5.25q1.8125 -1.859375 5.140625 -1.859375q1.25 0 2.484375 0.328125l-0.203125 2.921875q-0.921875 -0.171875 -1.953125 -0.171875q-1.75 0 -2.71875 1.03125q-0.953125 1.015625 -0.953125 2.9375l0 2.21875l4.515625 0l0 2.796875l-4.515625 0l0 18.34375l-3.609375 0zm11.152344 -10.765625q0 -3.109375 1.21875 -5.578125q1.21875 -2.484375 3.390625 -3.828125q2.1875 -1.359375 4.984375 -1.359375q4.3125 0 6.96875 3.0q2.671875 2.984375 2.671875 7.9375l0 0.265625q0 3.078125 -1.1875 5.53125q-1.171875 2.453125 -3.375 3.828125q-2.1875 1.359375 -5.046875 1.359375q-4.296875 0 -6.96875 -2.984375q-2.65625 -3.0 -2.65625 -7.921875l0 -0.25zm3.625 0.4375q0 3.515625 1.625 5.640625q1.640625 2.125 4.375 2.125q2.75 0 4.375 -2.15625q1.625 -2.15625 1.625 -6.046875q0 -3.46875 -1.65625 -5.625q-1.640625 -2.171875 -4.375 -2.171875q-2.6875 0 -4.328125 2.140625q-1.640625 2.125 -1.640625 6.09375zm30.359375 -7.5625q-0.828125 -0.140625 -1.78125 -0.140625q-3.546875 0 -4.828125 3.03125l0 15.0l-3.609375 0l0 -21.140625l3.515625 0l0.0625 2.453125q1.78125 -2.84375 5.03125 -2.84375q1.0625 0 1.609375 0.28125l0 3.359375zm18.125 -8.359375l0 5.109375l3.9375 0l0 2.796875l-3.9375 0l0 13.109375q0 1.265625 0.515625 1.90625q0.53125 0.625 1.8125 0.625q0.625 0 1.71875 -0.234375l0 2.9375q-1.4375 0.390625 -2.78125 0.390625q-2.421875 0 -3.65625 -1.46875q-1.21875 -1.46875 -1.21875 -4.15625l0 -13.109375l-3.859375 0l0 -2.796875l3.859375 0l0 -5.109375l3.609375 0zm11.769531 7.671875q2.40625 -2.953125 6.25 -2.953125q6.703125 0 6.765625 7.5625l0 13.96875l-3.609375 0l0 -13.984375q-0.03125 -2.28125 -1.0625 -3.375q-1.015625 -1.09375 -3.1875 -1.09375q-1.75 0 -3.078125 0.9375q-1.328125 0.9375 -2.078125 2.453125l0 15.0625l-3.609375 0l0 -30.0l3.609375 0l0 11.421875zm27.1875 18.96875q-4.296875 0 -7.0 -2.8125q-2.6875 -2.828125 -2.6875 -7.5625l0 -0.65625q0 -3.15625 1.203125 -5.625q1.203125 -2.46875 3.359375 -3.859375q2.15625 -1.40625 4.6875 -1.40625q4.109375 0 6.390625 2.71875q2.296875 2.71875 2.296875 7.78125l0 1.5l-14.3125 0q0.078125 3.125 1.8125 5.046875q1.75 1.921875 4.453125 1.921875q1.90625 0 3.234375 -0.78125q1.328125 -0.78125 2.328125 -2.0625l2.203125 1.71875q-2.65625 4.078125 -7.96875 4.078125zm-0.4375 -18.953125q-2.1875 0 -3.671875 1.59375q-1.484375 1.59375 -1.84375 4.46875l10.59375 0l0 -0.28125q-0.15625 -2.75 -1.484375 -4.265625q-1.328125 -1.515625 -3.59375 -1.515625zm31.25 16.0q1.921875 0 3.359375 -1.171875q1.453125 -1.171875 1.609375 -2.921875l3.421875 0q-0.09375 1.8125 -1.25 3.453125q-1.15625 1.640625 -3.078125 2.625q-1.921875 0.96875 -4.0625 0.96875q-4.328125 0 -6.875 -2.875q-2.546875 -2.890625 -2.546875 -7.890625l0 -0.609375q0 -3.078125 1.125 -5.484375q1.140625 -2.40625 3.25 -3.734375q2.125 -1.328125 5.015625 -1.328125q3.5625 0 5.90625 2.140625q2.359375 2.125 2.515625 5.515625l-3.421875 0q-0.15625 -2.046875 -1.546875 -3.359375q-1.390625 -1.328125 -3.453125 -1.328125q-2.75 0 -4.265625 1.984375q-1.515625 1.984375 -1.515625 5.734375l0 0.6875q0 3.65625 1.5 5.625q1.515625 1.96875 4.3125 1.96875zm11.5 -8.203125q0 -3.109375 1.21875 -5.578125q1.21875 -2.484375 3.390625 -3.828125q2.1875 -1.359375 4.984375 -1.359375q4.3125 0 6.96875 3.0q2.671875 2.984375 2.671875 7.9375l0 0.265625q0 3.078125 -1.1875 5.53125q-1.171875 2.453125 -3.375 3.828125q-2.1875 1.359375 -5.046875 1.359375q-4.296875 0 -6.96875 -2.984375q-2.65625 -3.0 -2.65625 -7.921875l0 -0.25zm3.625 0.4375q0 3.515625 1.625 5.640625q1.640625 2.125 4.375 2.125q2.75 0 4.375 -2.15625q1.625 -2.15625 1.625 -6.046875q0 -3.46875 -1.65625 -5.625q-1.640625 -2.171875 -4.375 -2.171875q-2.6875 0 -4.328125 2.140625q-1.640625 2.125 -1.640625 6.09375zm23.546875 -10.8125l0.09375 2.34375q2.328125 -2.734375 6.265625 -2.734375q4.4375 0 6.03125 3.40625q1.0625 -1.53125 2.75 -2.46875q1.6875 -0.9375 4.0 -0.9375q6.953125 0 7.0625 7.375l0 14.15625l-3.609375 0l0 -13.953125q0 -2.265625 -1.046875 -3.375q-1.03125 -1.125 -3.46875 -1.125q-2.015625 0 -3.34375 1.203125q-1.328125 1.1875 -1.53125 3.21875l0 14.03125l-3.640625 0l0 -13.84375q0 -4.609375 -4.515625 -4.609375q-3.546875 0 -4.859375 3.015625l0 15.4375l-3.609375 0l0 -21.140625l3.421875 0zm35.058594 0l0.09375 2.34375q2.328125 -2.734375 6.265625 -2.734375q4.4375 0 6.03125 3.40625q1.0625 -1.53125 2.75 -2.46875q1.6875 -0.9375 4.0 -0.9375q6.953125 0 7.0625 7.375l0 14.15625l-3.609375 0l0 -13.953125q0 -2.265625 -1.046875 -3.375q-1.03125 -1.125 -3.46875 -1.125q-2.015625 0 -3.34375 1.203125q-1.328125 1.1875 -1.53125 3.21875l0 14.03125l-3.640625 0l0 -13.84375q0 -4.609375 -4.515625 -4.609375q-3.546875 0 -4.859375 3.015625l0 15.4375l-3.609375 0l0 -21.140625l3.421875 0zm44.699158 19.046875q-2.109375 2.484375 -6.1875 2.484375q-3.375 0 -5.15625 -1.953125q-1.765625 -1.96875 -1.78125 -5.828125l0 -13.75l3.609375 0l0 13.65625q0 4.8125 3.90625 4.8125q4.140625 0 5.515625 -3.09375l0 -15.375l3.609375 0l0 21.140625l-3.4375 0l-0.078125 -2.09375zm12.425781 -19.046875l0.109375 2.65625q2.421875 -3.046875 6.328125 -3.046875q6.703125 0 6.765625 7.5625l0 13.96875l-3.609375 0l0 -13.984375q-0.03125 -2.28125 -1.0625 -3.375q-1.015625 -1.09375 -3.1875 -1.09375q-1.75 0 -3.078125 0.9375q-1.328125 0.9375 -2.078125 2.453125l0 15.0625l-3.609375 0l0 -21.140625l3.421875 0zm22.570312 21.140625l-3.609375 0l0 -21.140625l3.609375 0l0 21.140625zm-3.90625 -26.734375q0 -0.890625 0.53125 -1.484375q0.546875 -0.609375 1.59375 -0.609375q1.0625 0 1.609375 0.609375q0.546875 0.59375 0.546875 1.484375q0 0.875 -0.546875 1.46875q-0.546875 0.578125 -1.609375 0.578125q-1.046875 0 -1.59375 -0.578125q-0.53125 -0.59375 -0.53125 -1.46875zm14.597656 0.484375l0 5.109375l3.9375 0l0 2.796875l-3.9375 0l0 13.109375q0 1.265625 0.515625 1.90625q0.53125 0.625 1.8125 0.625q0.625 0 1.71875 -0.234375l0 2.9375q-1.4375 0.390625 -2.78125 0.390625q-2.421875 0 -3.65625 -1.46875q-1.21875 -1.46875 -1.21875 -4.15625l0 -13.109375l-3.859375 0l0 -2.796875l3.859375 0l0 -5.109375l3.609375 0zm15.082031 20.953125l4.921875 -15.84375l3.859375 0l-8.5 24.40625q-1.96875 5.265625 -6.265625 5.265625l-0.6875 -0.046875l-1.34375 -0.265625l0 -2.921875l0.984375 0.078125q1.828125 0 2.84375 -0.75q1.03125 -0.734375 1.703125 -2.703125l0.796875 -2.15625l-7.53125 -20.90625l3.9375 0l5.28125 15.84375zm9.9921875 3.40625q0 -0.9375 0.546875 -1.5625q0.5625 -0.625 1.671875 -0.625q1.125 0 1.703125 0.625q0.578125 0.625 0.578125 1.5625q0 0.890625 -0.578125 1.5q-0.578125 0.609375 -1.703125 0.609375q-1.109375 0 -1.671875 -0.609375q-0.546875 -0.609375 -0.546875 -1.5z" fill-rule="nonzero"/></g></svg>