<svg version="1.1" viewBox="0.0 0.0 32.0 32.0" fill="none" stroke="none" stroke-linecap="square" stroke-miterlimit="10" xmlns:xlink="http://www.w3.org/1999/xlink" xmlns="http://www.w3.org/2000/svg"><clipPath id="p.0"><path d="m0 0l32.0 0l0 32.0l-32.0 0l0 -32.0z" clip-rule="nonzero"/></clipPath><g clip-path="url(#p.0)"><path fill="#000000" fill-opacity="0.0" d="m0 0l32.0 0l0 32.0l-32.0 0z" fill-rule="evenodd"/><path fill="#707eeb" d="m0 16.0l0 0c0 -8.8365555 7.163444 -16.0 16.0 -16.0l0 0c4.2434635 0 8.313126 1.6857095 11.313709 4.6862917c3.0005817 3.0005817 4.6862907 7.070245 4.6862907 11.313708l0 0c0 8.8365555 -7.1634445 16.0 -16.0 16.0l0 0c-8.8365555 0 -16.0 -7.1634445 -16.0 -16.0z" fill-rule="evenodd"/><path fill="#000000" fill-opacity="0.0" d="m-12.425197 -18.057743l56.850395 0l0 63.02362l-56.850395 0z" fill-rule="evenodd"/><path fill="#ffffff" d="m21.02246 7.0641294q-0.234375 0.6875 -0.421875 1.7031245q-0.1875 1.015625 -0.1875 2.25q0 0.890625 0.046875 1.8125q0.0625 0.90625 -0.140625 1.71875q-0.015625 -0.265625 0.25 -0.265625q0.296875 0 0.53125 0.203125q0.234375 0.203125 0.234375 0.53125q0 0.46875 -0.3125 0.625q-0.3125 0.15625 -0.4375 0.21875l0 0.578125q0 2.265625 -0.28125 4.15625q-0.265625 1.90625 -0.875 3.3125q-0.59375 1.421875 -1.640625 2.25q-1.03125 0.828125 -2.531249 0.828125q-0.65625 0 -1.296875 -0.25q-0.625 -0.25 -1.125 -0.765625q-0.484375 -0.5 -0.78125 -1.25q-0.296875 -0.734375 -0.296875 -1.71875q0 -1.0625 0.390625 -2.015625q0.390625 -0.953125 1.015625 -1.78125q0.640625 -0.828125 1.4375 -1.515625q0.796875 -0.6875 1.624999 -1.234375q0.828125 -0.5625 1.625 -0.984375q0.796875 -0.421875 1.171875 -0.59375q-0.015625 -0.71875 -0.09375 -1.734375q-0.0625 -1.015625 -0.0625 -2.09375q0 -1.015625 0.125 -1.96875q0.125 -0.953125 0.453125 -1.2968745q0.09375 0.203125 -0.390625 0.40624952q-0.46875 0.1875 -0.984375 0.359375q-0.5 0.171875 -1.03125 0.328125q-0.53125 0.15625 -1.03125 0.296875q-0.74999905 0.21875 -1.343749 0.484375q-0.59375 0.25 -1.0 0.5625q-0.390625 0.296875 -0.59375 0.671875q-0.203125 0.375 -0.203125 0.84375q0 0.578125 0.21875 0.96875q0.21875 0.390625 0.578125 0.640625q0.359375 0.25 0.828125 0.375q0.46875 0.109375 0.9375 0.109375q0.328125 0 0.546875 0.234375q0.23437405 0.21875 0.23437405 0.546875q0 0.34375 -0.24999905 0.5625q-0.234375 0.203125 -0.53125 0.203125q-0.71875 0 -1.4375 -0.203125q-0.71875 -0.203125 -1.3125 -0.65625q-0.59375 -0.453125 -0.96875 -1.140625q-0.375 -0.6875 -0.375 -1.609375q0 -0.8125 0.3125 -1.453125q0.328125 -0.640625 0.90625 -1.125q0.578125 -0.484375 1.34375 -0.828125q0.765625 -0.34375 1.6875 -0.6249995q0.65624905 -0.171875 1.265624 -0.375q0.625 -0.203125 1.1875 -0.421875q0.5625 -0.21875 1.0 -0.4375q0.453125 -0.21875 0.671875 -0.390625q0.375 -1.046875 0.90625 -1.734375q0.53125 -0.70312524 1.140625 -0.70312524q0.140625 0 0.3125 0.0625q0.1875 0.046875 0.328125 0.1875q0.15625 0.12500024 0.25 0.32812524q0.109375 0.203125 0.109375 0.484375q0 0.5625 -0.515625 1.1875q-0.515625 0.625 -1.21875 1.140625zm-1.984375 9.46875q0 0 -0.6875 0.375q-0.671875 0.359375 -1.390625 0.859375q-0.703125 0.484375 -1.374999 1.09375q-0.65625 0.59375 -1.171875 1.265625q-0.5 0.65625 -0.8125 1.375q-0.296875 0.734375 -0.296875 1.5q0 0.625 0.171875 1.09375q0.171875 0.46875 0.46875 0.765625q0.296875 0.296875 0.65625 0.453125q0.359375 0.15625 0.75 0.15625q0.70312405 0 1.234374 -0.328125q0.53125 -0.328125 0.9375 -0.9375q0.40625 -0.609375 0.703125 -1.484375q0.296875 -0.875 0.46875 -1.96875q0.1875 -1.078125 0.265625 -2.3125q0.078125 -1.234375 0.078125 -1.90625z" fill-rule="nonzero"/></g></svg>